<svg xmlns="http://www.w3.org/2000/svg" viewBox="0 0 216.67 216.67"><defs><style>.cls-1{fill:none;}.cls-2{fill:#f9b826;stroke:#f9b826;}.cls-2,.cls-3{stroke-miterlimit:10;stroke-width:2px;}.cls-3{fill:#f7f8f9;stroke:#3bccff;}</style></defs><g id="Layer_2" data-name="Layer 2"><g id="FINAL"><rect class="cls-1" width="216.67" height="216.67"/><g id="Mostly_sunny"><rect class="cls-2" x="43.94" y="101.37" width="24.21" height="7.37" rx="3.68"/><rect class="cls-2" x="127.31" y="66.84" width="24.21" height="7.37" rx="3.68" transform="translate(287.87 21.81) rotate(135)"/><rect class="cls-2" x="92.78" y="52.54" width="24.21" height="7.37" rx="3.68" transform="translate(161.1 -48.66) rotate(90)"/><rect class="cls-2" x="58.24" y="66.84" width="24.21" height="7.37" rx="3.68" transform="translate(70.47 -29.09) rotate(45)"/><circle id="sunce" class="cls-2" cx="104.88" cy="105.06" r="25.97"/><path id="oblak_3" class="cls-3" d="M149.85,98.18a6.92,6.92,0,0,1-.43-2.37A7.2,7.2,0,0,1,163,92.63a6.08,6.08,0,0,1,3-.77,6,6,0,0,1,6,5.92,4.71,4.71,0,0,1,0,.53,8.07,8.07,0,0,1-2.9,15.68H152.23a8.07,8.07,0,0,1-2.38-15.81Z"/><path id="oblak_3-2" data-name="oblak_3" class="cls-3" d="M74.86,137.24a9.47,9.47,0,0,0,.54-3.12,9.27,9.27,0,0,0-17.54-4.18,7.67,7.67,0,0,0-3.84-1,7.79,7.79,0,0,0-7.79,7.79c0,.24,0,.47,0,.7A10.64,10.64,0,0,0,50,158H72A10.55,10.55,0,0,0,82.3,146.81,10.74,10.74,0,0,0,74.86,137.24Z"/><path id="oblak_6" class="cls-3" d="M136.54,148.72a7.77,7.77,0,0,0-.2-1.78,8.29,8.29,0,0,0-16.16,3.67,8.39,8.39,0,0,0,1.66,3.4,9.27,9.27,0,1,0,7,17,12,12,0,1,0,7.69-22.28Z"/></g></g></g></svg>