<svg xmlns="http://www.w3.org/2000/svg" viewBox="0 0 216.67 216.67"><defs><style>.cls-1{fill:none;}.cls-2{fill:#f9b826;stroke:#f9b826;}.cls-2,.cls-3{stroke-miterlimit:10;stroke-width:2px;}.cls-3{fill:#def4fc;stroke:#3bccff;}</style></defs><g id="Layer_2" data-name="Layer 2"><g id="FINAL"><rect class="cls-1" width="216.67" height="216.67"/><g id="Partly_sunny"><g id="zraci"><rect class="cls-2" x="48.18" y="101.2" width="24.21" height="7.37" rx="3.68"/><rect class="cls-2" x="145.86" y="101.2" width="24.21" height="7.37" rx="3.68" transform="translate(315.92 209.77) rotate(-180)"/><rect class="cls-2" x="131.55" y="66.67" width="24.21" height="7.37" rx="3.68" transform="translate(294.98 18.52) rotate(135)"/><rect class="cls-2" x="97.02" y="52.36" width="24.21" height="7.37" rx="3.68" transform="translate(165.17 -53.07) rotate(90)"/><rect class="cls-2" x="62.48" y="66.67" width="24.21" height="7.37" rx="3.68" transform="translate(71.59 -32.14) rotate(45)"/></g><circle id="sunce" class="cls-2" cx="109.12" cy="104.89" r="25.97"/><path id="oblak_3" class="cls-3" d="M109.23,156.92a6.92,6.92,0,0,1-.43-2.37,7.2,7.2,0,0,1,13.58-3.18,6.08,6.08,0,0,1,3-.77,6,6,0,0,1,6,5.92,4.71,4.71,0,0,1,0,.53,8.07,8.07,0,0,1-2.9,15.68c-2.23,0-16.84,0-16.84,0a8.07,8.07,0,0,1-2.38-15.81Z"/><path id="oblak_5" class="cls-3" d="M90.22,114.63c0-.22,0-.44,0-.66a8.16,8.16,0,0,0-13.79-5.9A12.83,12.83,0,0,0,61.09,96.93a12.79,12.79,0,0,0-25.24,3c0,2.49,1.4,6.24,3.6,7.77-3.94.76-9.28,4.88-7.63,11.09-6.41-.11-12.75,4-12.75,10.59,0,7.07,5.38,10.68,12.45,10.64C35,140,88,140,88,140a12.79,12.79,0,0,0,2.22-25.35Z"/><path id="oblak_4" class="cls-3" d="M186,115a8.91,8.91,0,0,0-11-12.42c0-.16,0-.33,0-.49a14,14,0,0,0-27.81-2.18l-.46,0a15.08,15.08,0,0,0-14.3,10.31,9.5,9.5,0,1,0-4.67,18.25,11.75,11.75,0,0,0-.09,1.34c0,5.94,4.93,10.16,10.87,10.16l46.51,0a12.5,12.5,0,0,0,.92-25Z"/></g></g></g></svg>