<svg xmlns="http://www.w3.org/2000/svg" viewBox="0 0 216.67 216.67"><defs><style>.cls-1{fill:none;}.cls-2{fill:#4f5f65;stroke:#404349;}.cls-2,.cls-3,.cls-4{stroke-miterlimit:10;stroke-width:2px;}.cls-3{fill:#a7b7bd;}.cls-3,.cls-4{stroke:#464d4f;}.cls-4{fill:#778f98;}</style></defs><g id="Layer_2" data-name="Layer 2"><g id="FINAL"><rect class="cls-1" width="216.67" height="216.67"/><path id="oblak_5" class="cls-2" d="M49.85,101.1c0-.41-.06-.83-.06-1.26A15.69,15.69,0,0,1,76.33,88.49a24.61,24.61,0,0,1,29.6-21.44,24.63,24.63,0,0,1,48.59,5.7c0,4.81-2.7,12-6.93,15,7.57,1.47,17.87,9.41,14.68,21.35,12.34-.2,24.55,7.76,24.55,20.4,0,13.61-10.35,20.56-24,20.48-6.62-.05-108.73,0-108.73,0a24.63,24.63,0,0,1-4.28-48.82Z"/><path id="oblak_4" class="cls-3" d="M143.11,144.45A9.84,9.84,0,0,0,131,130.73c0-.19,0-.37,0-.55a15.47,15.47,0,0,0-30.75-2.41c-.17,0-.34,0-.51,0a16.66,16.66,0,0,0-15.8,11.41,10.5,10.5,0,1,0-5.17,20.17,12.13,12.13,0,0,0-.1,1.48c0,6.58,5.45,11.24,12,11.24l51.42,0a13.82,13.82,0,0,0,1-27.61Z"/><path id="oblak_2" class="cls-4" d="M111.31,69.21l-.7.08a8.83,8.83,0,0,0,0-1.15,9.85,9.85,0,0,0-10.45-9.24,9.63,9.63,0,0,0-3.31.8c0-.19,0-.37,0-.55a15.48,15.48,0,0,0-30.79-1.1,16.86,16.86,0,0,0-3-.1A16.65,16.65,0,0,0,47.41,74.28,10.52,10.52,0,1,0,46,94a15.42,15.42,0,0,0,20.6,7.9,26.77,26.77,0,0,0,18.7,5.8c9.27-.56,17.08-5.43,20.94-12.17a13.83,13.83,0,1,0,5-26.32Z"/></g></g></svg>