<svg xmlns="http://www.w3.org/2000/svg" viewBox="0 0 216.67 216.67"><defs><style>.cls-1{fill:none;}.cls-2{fill:#f9b826;stroke:#f9b826;}.cls-2,.cls-3{stroke-miterlimit:10;stroke-width:2px;}.cls-3{fill:#dcecf4;stroke:#3bccff;}</style></defs><g id="Layer_2" data-name="Layer 2"><g id="FINAL"><rect class="cls-1" width="216.67" height="216.67"/><g id="Clouds_4"><circle id="sunce" class="cls-2" cx="108.34" cy="108.34" r="25.97"/><path id="oblak_6" class="cls-3" d="M41.25,85.78a6.79,6.79,0,0,0-.17-1.48A6.91,6.91,0,1,0,27.6,87.36,6.82,6.82,0,0,0,29,90.19a7.73,7.73,0,0,0,3.73,15,7.55,7.55,0,0,0,2.12-.83,10,10,0,1,0,6.42-18.59Z"/><path id="oblak_6-2" data-name="oblak_6" class="cls-3" d="M152.75,28.82a6.37,6.37,0,0,0-.17-1.49,6.91,6.91,0,0,0-13.48,3.06,6.75,6.75,0,0,0,1.39,2.84,7.73,7.73,0,1,0,5.84,14.18,10,10,0,1,0,6.42-18.59Z"/><path id="oblak_6-3" data-name="oblak_6" class="cls-3" d="M56.3,174.83a6.79,6.79,0,0,0-.17-1.48A6.91,6.91,0,1,0,44,179.24a7.73,7.73,0,0,0,3.73,15,7.55,7.55,0,0,0,2.12-.83,10,10,0,1,0,6.42-18.59Z"/><path id="oblak_6-4" data-name="oblak_6" class="cls-3" d="M160.4,85.43A6.91,6.91,0,1,0,172.67,81a7.73,7.73,0,0,0-3.73-15,7.54,7.54,0,0,0-2.12.82,10,10,0,1,0-6.42,18.6Z"/><path id="oblak_6-5" data-name="oblak_6" class="cls-3" d="M111.12,128.77a7.65,7.65,0,0,0-.17-1.49,6.92,6.92,0,0,0-13.49,3.07,7,7,0,0,0,1.39,2.83,7.73,7.73,0,0,0,3.73,15,8,8,0,0,0,2.12-.83,10,10,0,1,0,6.42-18.59Z"/><path id="oblak_6-6" data-name="oblak_6" class="cls-3" d="M136.83,138.24a6.91,6.91,0,1,1,13.65,1.57,6.86,6.86,0,0,1-1.38,2.84,7.73,7.73,0,0,1-3.73,15,7.87,7.87,0,0,1-2.12-.83,10,10,0,1,1-6.42-18.59Z"/><path id="oblak_6-7" data-name="oblak_6" class="cls-3" d="M89.22,28.82a6.91,6.91,0,1,1,13.65,1.57,6.86,6.86,0,0,1-1.38,2.84,7.73,7.73,0,0,1-3.73,15,7.87,7.87,0,0,1-2.12-.83,10,10,0,1,1-6.42-18.59Z"/><path id="oblak_4" class="cls-3" d="M178.33,178.77a5.53,5.53,0,0,0-6.83-7.72c0-.1,0-.2,0-.31a8.69,8.69,0,0,0-17.28-1.35l-.29,0a9.37,9.37,0,0,0-8.88,6.41,6,6,0,0,0-2.17-.42,5.9,5.9,0,0,0-.73,11.76,7.72,7.72,0,0,0-.06.84c0,3.69,3.07,6.31,6.76,6.31h28.9a7.77,7.77,0,0,0,.57-15.51Z"/><path id="oblak_2" class="cls-3" d="M121.44,102.37l.35,0a3.52,3.52,0,0,1,0-.56A4.86,4.86,0,0,1,126.61,97a5,5,0,0,1,1.65.29c0-.09,0-.18,0-.27a7.62,7.62,0,0,1,15.09-1.46,9,9,0,0,1,1.48-.14A8.2,8.2,0,0,1,153,103a5,5,0,0,1,2.36-.58,5.17,5.17,0,1,1,0,10.34,5.52,5.52,0,0,1-1.09-.11,7.62,7.62,0,0,1-7.15,5,7.45,7.45,0,0,1-2.73-.52,13.17,13.17,0,0,1-9,3.41,12.68,12.68,0,0,1-10.65-5.35,6.81,6.81,0,1,1-3.27-12.78Z"/><path id="oblak_2-2" data-name="oblak_2" class="cls-3" d="M71.06,136.21l-.42,0a5.07,5.07,0,0,0,0-.68,5.87,5.87,0,0,0-5.87-5.87,5.71,5.71,0,0,0-2,.36c0-.11,0-.22,0-.33A9.2,9.2,0,0,0,44.59,128a9.61,9.61,0,0,0-1.79-.17,9.91,9.91,0,0,0-9.88,9.13,6.25,6.25,0,1,0-2.85,11.8,6.43,6.43,0,0,0,1.32-.14A9.2,9.2,0,0,0,40,154.63a9,9,0,0,0,3.3-.62,16,16,0,0,0,10.9,4.12,15.32,15.32,0,0,0,12.88-6.47,8.23,8.23,0,1,0,4-15.45Z"/><path id="oblak_3" class="cls-3" d="M106.34,66a7.41,7.41,0,0,1,13.59-5.84,6.14,6.14,0,0,1,3.07-.81,6.23,6.23,0,0,1,6.23,6.23,4.93,4.93,0,0,1,0,.55,8.51,8.51,0,0,1-3,16.5H108.65a8.43,8.43,0,0,1-8.27-9A8.59,8.59,0,0,1,106.34,66Z"/><path id="oblak_3-2" data-name="oblak_3" class="cls-3" d="M187.44,125.17a7.42,7.42,0,0,0-13.6-5.85,6.24,6.24,0,0,0-9.31,5.43,5.07,5.07,0,0,0,0,.55,8.53,8.53,0,0,0,3,16.52h17.57a8.44,8.44,0,0,0,8.27-9A8.58,8.58,0,0,0,187.44,125.17Z"/><path id="oblak_3-3" data-name="oblak_3" class="cls-3" d="M114,174.08A9,9,0,0,0,97.5,167a7.56,7.56,0,0,0-11.3,6.58c0,.23,0,.45,0,.68a10.34,10.34,0,0,0,3.64,20h21.31a10.25,10.25,0,0,0,10-10.91A10.44,10.44,0,0,0,114,174.08Z"/><path id="oblak_3-4" data-name="oblak_3" class="cls-3" d="M68.56,94.42a7.24,7.24,0,0,1,13.28-5.71A6.09,6.09,0,0,1,90.93,94a4.89,4.89,0,0,1,0,.54A8.32,8.32,0,0,1,88,110.67H70.83a8.24,8.24,0,0,1-8.08-8.78A8.39,8.39,0,0,1,68.56,94.42Z"/><path id="oblak_3-5" data-name="oblak_3" class="cls-3" d="M73.07,54.35A8,8,0,0,0,58.35,48,6.66,6.66,0,0,0,55,47.15a6.75,6.75,0,0,0-6.75,6.74,6.08,6.08,0,0,0,0,.61,9.22,9.22,0,0,0,3.25,17.86h19a9.13,9.13,0,0,0,9-9.72A9.3,9.3,0,0,0,73.07,54.35Z"/></g></g></g></svg>