<svg xmlns="http://www.w3.org/2000/svg" viewBox="0 0 216.67 216.67"><defs><style>.cls-1{fill:none;}.cls-2{fill:#424f54;}.cls-2,.cls-3{stroke:#404349;stroke-miterlimit:10;stroke-width:2px;}.cls-3{fill:#6f7a7e;}</style></defs><g id="Layer_2" data-name="Layer 2"><g id="FINAL"><rect class="cls-1" width="216.67" height="216.67"/><g id="Cloudly"><path id="oblak_5" class="cls-2" d="M166.82,94.93c0-.42.06-.83.06-1.26a15.69,15.69,0,0,0-26.54-11.36,24.66,24.66,0,0,0-29.6-21.44,24.63,24.63,0,0,0-48.59,5.71c0,4.81,2.7,12,6.93,15C61.51,83,51.22,90.94,54.4,102.88c-12.34-.2-24.55,7.77-24.55,20.41,0,13.61,10.36,20.56,24,20.47,6.62,0,108.73,0,108.73,0a24.63,24.63,0,0,0,4.28-48.81Z"/><path id="oblak_1" class="cls-3" d="M169.85,134.66a11.92,11.92,0,0,0,.25-2.4,11.63,11.63,0,0,0-17.67-10,19.15,19.15,0,0,0-37.07-6,17.12,17.12,0,0,0-25.45,15,17.3,17.3,0,0,0,.32,3.25H83.35a19.17,19.17,0,1,0,0,38.34c5.15,0,84.59,0,84.59,0a19.16,19.16,0,0,0,1.91-38.19Z"/></g></g></g></svg>