<svg xmlns="http://www.w3.org/2000/svg" viewBox="0 0 216.67 216.67"><defs><style>.cls-1{fill:none;}.cls-2{fill:#f9b826;stroke:#f9b826;}.cls-2,.cls-3{stroke-miterlimit:10;stroke-width:2px;}.cls-3{fill:#d1e3e8;stroke:#83a0b2;}</style></defs><g id="Layer_2" data-name="Layer 2"><g id="FINAL"><rect class="cls-1" width="216.67" height="216.67"/><g id="Partly_cloudy"><circle id="sunce" class="cls-2" cx="108.02" cy="109.58" r="25.97"/><path id="oblak_5" class="cls-3" d="M96.28,110.55c0-.23,0-.47,0-.7a8.8,8.8,0,0,0-14.88-6.37A13.81,13.81,0,0,0,67.72,91.16a13.47,13.47,0,0,0-2.86.31,13.8,13.8,0,0,0-27.23,3.19c0,2.7,1.51,6.74,3.88,8.39-4.24.82-10,5.27-8.23,12-6.91-.11-13.75,4.35-13.75,11.43,0,7.63,5.8,11.52,13.43,11.48,3.7,0,60.93,0,60.93,0a13.8,13.8,0,0,0,2.39-27.36Z"/><path id="oblak_4" class="cls-3" d="M184.33,74.27a9.84,9.84,0,0,0-12.15-13.72c0-.19,0-.37,0-.55a15.47,15.47,0,0,0-30.75-2.41l-.52,0A16.64,16.64,0,0,0,125.15,69,10.5,10.5,0,1,0,120,89.14a12.16,12.16,0,0,0-.1,1.49c0,6.57,5.45,11.23,12,11.23l51.42,0a13.82,13.82,0,0,0,1-27.61Z"/><path id="oblak_1" class="cls-3" d="M158,138a10.89,10.89,0,0,0,.22-2.15,10.4,10.4,0,0,0-15.8-8.92,17.12,17.12,0,0,0-33.15-5.34A15.29,15.29,0,0,0,86.52,135a15.6,15.6,0,0,0,.28,2.91H80.65a17.14,17.14,0,0,0,0,34.28h75.63A17.13,17.13,0,0,0,158,138Z"/></g></g></g></svg>