<svg xmlns="http://www.w3.org/2000/svg" viewBox="0 0 216.67 216.67"><defs><style>.cls-1{fill:none;}.cls-2{fill:#cbd1d3;}.cls-2,.cls-4{stroke:#627885;}.cls-2,.cls-3,.cls-4{stroke-miterlimit:10;stroke-width:2px;}.cls-3{fill:#d1e3e8;stroke:#83a0b2;}.cls-4{fill:#b4d3d6;}</style></defs><g id="Layer_2" data-name="Layer 2"><g id="FINAL"><rect class="cls-1" width="216.67" height="216.67"/><g id="Clouds_5"><path id="oblak_5" class="cls-2" d="M190.75,124.76c0-.26,0-.53,0-.79a9.87,9.87,0,0,0-16.68-7.14,15.45,15.45,0,0,0-18.59-13.46A15.47,15.47,0,0,0,125,107c0,3,1.7,7.55,4.36,9.4-4.76.92-11.22,5.9-9.22,13.4-7.75-.12-15.42,4.88-15.42,12.82,0,8.54,6.5,12.91,15,12.86,4.16,0,68.29,0,68.29,0a15.47,15.47,0,0,0,2.69-30.66Z"/><path id="oblak_6" class="cls-3" d="M122,52.53a6.91,6.91,0,1,0-12.26,4.41,7.73,7.73,0,0,0,3.72,15,7.94,7.94,0,0,0,2.13-.83A10,10,0,1,0,122,52.53Z"/><path id="oblak_4" class="cls-4" d="M89.88,143.41a9.85,9.85,0,0,0-12.15-13.73c0-.18,0-.36,0-.55A15.47,15.47,0,0,0,47,126.73c-.17,0-.34,0-.51,0a16.66,16.66,0,0,0-15.8,11.4,10.63,10.63,0,0,0-3.88-.74,10.5,10.5,0,0,0-1.29,20.92,12,12,0,0,0-.1,1.48c0,6.57,5.45,11.23,12,11.23l51.42,0a13.82,13.82,0,0,0,1-27.6Z"/><path id="oblak_1" class="cls-3" d="M98.68,78.4a9.42,9.42,0,0,0-9.22-11.35,9.31,9.31,0,0,0-4.85,1.36,15.46,15.46,0,0,0-29.93-4.82A13.82,13.82,0,0,0,34.13,75.67a14.3,14.3,0,0,0,.26,2.63H28.84a15.48,15.48,0,1,0,0,31H97.13A15.47,15.47,0,0,0,98.68,78.4Z"/><path id="oblak_3" class="cls-3" d="M179.16,60.73a11.27,11.27,0,0,0-20.67-8.88,9.47,9.47,0,0,0-14.14,8.24,7.94,7.94,0,0,0,0,.85A12.95,12.95,0,0,0,149,86h26.68a12.84,12.84,0,0,0,12.58-13.66A13.08,13.08,0,0,0,179.16,60.73Z"/></g></g></g></svg>