<svg xmlns="http://www.w3.org/2000/svg" viewBox="0 0 62.35 50.76"><defs><style>.cls-1{fill:#f9b826;stroke:#ffd731;stroke-width:0.38px;}.cls-1,.cls-3{stroke-miterlimit:10;}.cls-2{fill:#ffd731;}.cls-3{fill:#dcecf4;stroke:#3bccff;stroke-width:0.5px;}</style></defs><g id="Layer_2" data-name="Layer 2"><g id="FINAL"><g id="delimicno_vedro"><g id="sunce"><rect class="cls-1" x="2.91" y="22.35" width="9.37" height="2.85" rx="1.43"/><rect class="cls-2" x="8.44" y="35.71" width="9.37" height="2.85" rx="1.43" transform="translate(-22.42 20.16) rotate(-45)"/><rect class="cls-2" x="21.81" y="41.25" width="9.37" height="2.85" rx="1.43" transform="translate(-16.18 69.17) rotate(-90)"/><rect class="cls-2" x="35.17" y="35.71" width="9.37" height="2.85" rx="1.43" transform="translate(41.77 91.58) rotate(-135)"/><rect class="cls-2" x="40.71" y="22.35" width="9.37" height="2.85" rx="1.43" transform="translate(90.78 47.55) rotate(-180)"/><rect class="cls-1" x="35.17" y="8.99" width="9.37" height="2.85" rx="1.43" transform="translate(75.4 -10.41) rotate(135)"/><rect class="cls-1" x="21.81" y="3.45" width="9.37" height="2.85" rx="1.43" transform="translate(31.37 -21.61) rotate(90)"/><rect class="cls-1" x="8.44" y="8.99" width="9.37" height="2.85" rx="1.43" transform="translate(11.21 -6.23) rotate(45)"/><circle id="sunce-2" data-name="sunce" class="cls-1" cx="26.49" cy="23.78" r="10.05"/></g><path id="oblak_3" class="cls-3" d="M36.5,35.9a2.72,2.72,0,0,1-.16-.91,2.75,2.75,0,0,1,2.77-2.73,2.78,2.78,0,0,1,2.48,1.5,2.35,2.35,0,0,1,1.15-.3,2.3,2.3,0,0,1,2.33,2.29,1.27,1.27,0,0,1,0,.2A3.12,3.12,0,0,1,43.94,42H37.42a3.12,3.12,0,0,1-.92-6.12Z"/><path id="oblak_1" class="cls-3" d="M58.77,19.91a2.52,2.52,0,0,0,0-.48,2.29,2.29,0,0,0-3.47-1.95,3.75,3.75,0,0,0-7.26-1.17,3.33,3.33,0,0,0-4.93,3.57H41.81a3.76,3.76,0,0,0,0,7.52H58.4a3.76,3.76,0,0,0,.37-7.49Z"/><path id="oblak_3-2" data-name="oblak_3" class="cls-3" d="M24.73,36.18a6.38,6.38,0,0,0-11.71-5,5.26,5.26,0,0,0-2.64-.7A5.36,5.36,0,0,0,5,35.82a3.59,3.59,0,0,0,0,.47A7.34,7.34,0,0,0,7.62,50.51H22.74a7.27,7.27,0,0,0,7.12-7.74A7.4,7.4,0,0,0,24.73,36.18Z"/></g></g></g></svg>