<svg xmlns="http://www.w3.org/2000/svg" viewBox="0 0 181.97 123.56"><defs><style>.cls-1{fill:#989a9e;}.cls-1,.cls-2,.cls-3{stroke:#627885;stroke-miterlimit:10;stroke-width:4px;}.cls-2{fill:#cbd1d3;}.cls-3{fill:#adaeb1;}</style></defs><g id="Layer_2" data-name="Layer 2"><g id="FINAL"><g id="Mostly_cloudly"><path id="oblak_5" class="cls-1" d="M165.16,41.22c0-.31.05-.62.05-.93a11.62,11.62,0,0,0-19.65-8.41,18.23,18.23,0,0,0-18.12-16.26,18.78,18.78,0,0,0-3.78.39,18.23,18.23,0,0,0-36,4.23c0,3.55,2,8.9,5.13,11.07-5.6,1.08-13.22,7-10.86,15.8-9.13-.15-18.17,5.74-18.17,15.1,0,10.07,7.66,15.21,17.74,15.15,4.89,0,80.47,0,80.47,0a18.23,18.23,0,0,0,3.16-36.13Z"/><path id="oblak_4" class="cls-2" d="M75.56,54.72A9.84,9.84,0,0,0,63.41,41c0-.19,0-.37,0-.55A15.47,15.47,0,0,0,32.69,38l-.51,0a16.66,16.66,0,0,0-15.8,11.4,10.5,10.5,0,1,0-5.17,20.17,12.16,12.16,0,0,0-.1,1.49c0,6.57,5.45,11.23,12,11.23l51.42,0a13.82,13.82,0,0,0,1-27.61Z"/><path id="oblak_1" class="cls-3" d="M147.23,85.39a11.27,11.27,0,0,0,.24-2.27,11,11,0,0,0-16.74-9.45A18.13,18.13,0,0,0,95.64,68,16.2,16.2,0,0,0,71.55,82.19a16.49,16.49,0,0,0,.3,3.08H65.34a18.15,18.15,0,1,0,0,36.29h80.08a18.14,18.14,0,0,0,1.81-36.16Z"/></g></g></g></svg>