<svg xmlns="http://www.w3.org/2000/svg" viewBox="0 0 142.03 132.44"><defs><style>.cls-1{fill:#f9b826;stroke:#f9b826;}.cls-1,.cls-2{stroke-miterlimit:10;stroke-width:4px;}.cls-2{fill:#f7f8f9;stroke:#3bccff;}</style></defs><g id="Layer_2" data-name="Layer 2"><g id="FINAL"><g id="Mostly_sunny"><rect class="cls-1" x="6.62" y="59.26" width="24.21" height="7.37" rx="3.68"/><rect class="cls-1" x="89.99" y="24.73" width="24.21" height="7.37" rx="3.68" transform="translate(194.38 -23.69) rotate(135)"/><rect class="cls-1" x="55.46" y="10.42" width="24.21" height="7.37" rx="3.68" transform="translate(81.67 -53.46) rotate(90)"/><rect class="cls-1" x="20.92" y="24.73" width="24.21" height="7.37" rx="3.68" transform="translate(29.76 -15.03) rotate(45)"/><circle id="sunce" class="cls-1" cx="67.56" cy="62.94" r="25.97"/><path id="oblak_3" class="cls-2" d="M112.53,56.06a6.86,6.86,0,0,1-.43-2.36,7.2,7.2,0,0,1,13.58-3.18,6.09,6.09,0,0,1,3-.78,6,6,0,0,1,6,5.93,4.71,4.71,0,0,1,0,.53,8.07,8.07,0,0,1-2.9,15.68c-2.23,0-16.84,0-16.84,0a8.07,8.07,0,0,1-2.38-15.81Z"/><path id="oblak_3-2" data-name="oblak_3" class="cls-2" d="M37.53,95.12A9.16,9.16,0,0,0,38.08,92a9.27,9.27,0,0,0-17.54-4.19A7.79,7.79,0,0,0,8.91,94.6c0,.23,0,.47,0,.7a10.64,10.64,0,0,0,3.75,20.62H34.64A10.54,10.54,0,0,0,45,104.69,10.74,10.74,0,0,0,37.53,95.12Z"/><path id="oblak_6" class="cls-2" d="M99.22,106.61a7.71,7.71,0,0,0-.2-1.78,8.29,8.29,0,1,0-14.5,7.06,9.27,9.27,0,0,0,4.47,18,9.39,9.39,0,0,0,2.54-1,12,12,0,1,0,7.69-22.28Z"/></g></g></g></svg>