<svg xmlns="http://www.w3.org/2000/svg" viewBox="0 0 71.51 51.68"><defs><style>.cls-1{fill:#f9b826;stroke:#ffd731;stroke-width:0.38px;}.cls-1,.cls-3{stroke-miterlimit:10;}.cls-2{fill:#ffd731;}.cls-3{fill:#95b1c1;stroke:#fff;stroke-width:0.66px;}</style></defs><g id="Layer_2" data-name="Layer 2"><g id="FINAL"><g id="delimicno_oblacno"><g id="sunce"><rect class="cls-1" x="0.19" y="22.35" width="9.37" height="2.85" rx="1.43"/><rect class="cls-2" x="5.73" y="35.71" width="9.37" height="2.85" rx="1.43" transform="translate(-23.21 18.24) rotate(-45)"/><rect class="cls-2" x="19.09" y="41.25" width="9.37" height="2.85" rx="1.43" transform="translate(-18.9 66.45) rotate(-90)"/><rect class="cls-2" x="32.46" y="35.71" width="9.37" height="2.85" rx="1.43" transform="translate(37.14 89.66) rotate(-135)"/><rect class="cls-2" x="37.99" y="22.35" width="9.37" height="2.85" rx="1.43" transform="translate(85.35 47.55) rotate(-180)"/><rect class="cls-1" x="32.46" y="8.99" width="9.37" height="2.85" rx="1.43" transform="translate(70.76 -8.49) rotate(135)"/><rect class="cls-1" x="19.09" y="3.45" width="9.37" height="2.85" rx="1.43" transform="translate(28.65 -18.9) rotate(90)"/><rect class="cls-1" x="5.73" y="8.99" width="9.37" height="2.85" rx="1.43" transform="translate(10.41 -4.31) rotate(45)"/><circle id="sunce-2" data-name="sunce" class="cls-1" cx="23.78" cy="23.78" r="10.05"/></g><path id="oblak_1" class="cls-3" d="M62.15,31a6,6,0,0,0,.14-1.28,6.21,6.21,0,0,0-6.2-6.2,6.09,6.09,0,0,0-3.2.9,10.19,10.19,0,0,0-19.72-3.18,9.11,9.11,0,0,0-13.54,8A9,9,0,0,0,19.8,31H16.14a10.2,10.2,0,0,0,0,20.39c2.74,0,45,0,45,0a10.19,10.19,0,0,0,1-20.31Z"/></g></g></g></svg>