<svg xmlns="http://www.w3.org/2000/svg" viewBox="0 0 181.62 139.13"><defs><style>.cls-1{fill:#f9b826;stroke:#f9b826;}.cls-1,.cls-2{stroke-miterlimit:10;stroke-width:4px;}.cls-2{fill:#d1e3e8;stroke:#83a0b2;}</style></defs><g id="Layer_2" data-name="Layer 2"><g id="FINAL"><g id="Partly_cloudy"><circle id="sunce" class="cls-1" cx="90.5" cy="67.06" r="25.97"/><path id="oblak_5" class="cls-2" d="M78.76,70.53c0-.23,0-.47,0-.71a8.79,8.79,0,0,0-14.87-6.36A13.82,13.82,0,0,0,50.19,51.14a14.16,14.16,0,0,0-2.86.3,13.8,13.8,0,0,0-27.23,3.2c0,2.69,1.51,6.74,3.88,8.38-4.24.83-10,5.27-8.22,12C8.84,74.87,2,79.34,2,86.42,2,94,7.8,97.94,15.43,97.89c3.71,0,60.93,0,60.93,0a13.8,13.8,0,0,0,2.4-27.35Z"/><path id="oblak_4" class="cls-2" d="M166.8,31.75A9.86,9.86,0,0,0,154.65,18c0-.18,0-.36,0-.54a15.47,15.47,0,0,0-30.75-2.41l-.51,0a16.65,16.65,0,0,0-15.8,11.41,10.5,10.5,0,1,0-5.17,20.17,12.13,12.13,0,0,0-.1,1.48c0,6.57,5.45,11.24,12,11.24,10.75,0,51.42,0,51.42,0a13.82,13.82,0,0,0,1-27.61Z"/><path id="oblak_1" class="cls-2" d="M140.47,103a10.26,10.26,0,0,0,.23-2.15,10.43,10.43,0,0,0-10.43-10.43,10.27,10.27,0,0,0-5.38,1.51,17.12,17.12,0,0,0-33.14-5.35,15.31,15.31,0,0,0-22.48,16.29H63.12a17.15,17.15,0,0,0,0,34.29l75.64,0A17.13,17.13,0,0,0,140.47,103Z"/></g></g></g></svg>