<svg xmlns="http://www.w3.org/2000/svg" viewBox="0 0 182.53 139.16"><defs><style>.cls-1{fill:#f9b826;stroke:#f9b826;}.cls-1,.cls-2{stroke-miterlimit:10;stroke-width:4px;}.cls-2{fill:#def4fc;stroke:#3bccff;}</style></defs><g id="Layer_2" data-name="Layer 2"><g id="FINAL"><g id="Partly_sunny"><g id="zraci"><rect class="cls-1" x="31.11" y="59.26" width="24.21" height="7.37" rx="3.68"/><rect class="cls-1" x="128.79" y="59.26" width="24.21" height="7.37" rx="3.68" transform="translate(281.79 125.89) rotate(180)"/><rect class="cls-1" x="114.48" y="24.73" width="24.21" height="7.37" rx="3.68" transform="translate(236.19 -41.01) rotate(135)"/><rect class="cls-1" x="79.95" y="10.42" width="24.21" height="7.37" rx="3.68" transform="translate(106.16 -77.95) rotate(90)"/><rect class="cls-1" x="45.41" y="24.73" width="24.21" height="7.37" rx="3.68" transform="translate(36.94 -32.35) rotate(45)"/></g><circle id="sunce" class="cls-1" cx="92.05" cy="62.94" r="25.97"/><path id="oblak_3" class="cls-2" d="M92.16,121.35a6.92,6.92,0,0,1-.43-2.37,7.2,7.2,0,0,1,13.58-3.18,6.08,6.08,0,0,1,3-.77,6,6,0,0,1,6,5.92,4.58,4.58,0,0,1,0,.53,8.07,8.07,0,0,1-2.9,15.68H94.54a8.07,8.07,0,0,1-2.38-15.81Z"/><path id="oblak_5" class="cls-2" d="M73.15,72.68c0-.21,0-.43,0-.65a8.16,8.16,0,0,0-13.79-5.9A12.78,12.78,0,0,0,44,55a12.79,12.79,0,0,0-25.24,3c0,2.49,1.4,6.24,3.6,7.77-3.94.76-9.28,4.88-7.63,11.08C8.34,76.71,2,80.85,2,87.41c0,7.07,5.38,10.68,12.45,10.64,3.44,0,56.48,0,56.48,0a12.79,12.79,0,0,0,2.22-25.36Z"/><path id="oblak_4" class="cls-2" d="M168.94,73.08a8.92,8.92,0,0,0-8-13,9,9,0,0,0-3,.54c0-.17,0-.33,0-.5A14,14,0,0,0,130.16,58l-.46,0a15.07,15.07,0,0,0-14.29,10.32,9.5,9.5,0,1,0-4.68,18.25,11.75,11.75,0,0,0-.09,1.34c0,5.94,4.93,10.16,10.88,10.16l46.5,0a12.5,12.5,0,0,0,.92-25Z"/></g></g></g></svg>