<svg xmlns="http://www.w3.org/2000/svg" viewBox="0 0 216.67 216.67"><defs><style>.cls-1{fill:none;}.cls-2{fill:#f9b826;stroke:#f9b826;stroke-miterlimit:10;stroke-width:2px;}</style></defs><g id="Layer_2" data-name="Layer 2"><g id="FINAL"><rect class="cls-1" width="216.67" height="216.67"/><g id="Sunny"><g id="zraci"><rect class="cls-2" x="47.39" y="104.65" width="24.21" height="7.37" rx="3.68"/><rect class="cls-2" x="61.7" y="139.19" width="24.21" height="7.37" rx="3.68" transform="translate(-79.41 94.03) rotate(-45)"/><rect class="cls-2" x="96.23" y="153.49" width="24.21" height="7.37" rx="3.68" transform="translate(-48.84 265.51) rotate(-90)"/><rect class="cls-2" x="130.76" y="139.19" width="24.21" height="7.37" rx="3.68" transform="translate(142.87 344.92) rotate(-135)"/><rect class="cls-2" x="145.07" y="104.65" width="24.21" height="7.37" rx="3.68" transform="translate(314.35 216.67) rotate(180)"/><rect class="cls-2" x="130.76" y="70.12" width="24.21" height="7.37" rx="3.68" transform="translate(296.08 24.96) rotate(135)"/><rect class="cls-2" x="96.23" y="55.81" width="24.21" height="7.37" rx="3.68" transform="translate(167.83 -48.84) rotate(90)"/><rect class="cls-2" x="61.7" y="70.12" width="24.21" height="7.37" rx="3.68" transform="translate(73.8 -30.57) rotate(45)"/></g><circle id="sunce" class="cls-2" cx="108.34" cy="108.34" r="25.97"/></g></g></g></svg>