<svg xmlns="http://www.w3.org/2000/svg" viewBox="0 0 125.89 125.89"><defs><style>.cls-1{fill:#f9b826;stroke:#f9b826;stroke-miterlimit:10;stroke-width:4px;}</style></defs><g id="Layer_2" data-name="Layer 2"><g id="FINAL"><g id="Sunny"><g id="zraci"><rect class="cls-1" x="2" y="59.26" width="24.21" height="7.37" rx="3.68"/><rect class="cls-1" x="16.3" y="93.8" width="24.21" height="7.37" rx="3.68" transform="translate(-60.61 48.64) rotate(-45)"/><rect class="cls-1" x="50.84" y="108.1" width="24.21" height="7.37" rx="3.68" transform="translate(-48.84 174.73) rotate(-90)"/><rect class="cls-1" x="85.37" y="93.8" width="24.21" height="7.37" rx="3.68" transform="translate(97.48 235.33) rotate(-135)"/><rect class="cls-1" x="99.68" y="59.26" width="24.21" height="7.37" rx="3.68" transform="translate(223.57 125.89) rotate(180)"/><rect class="cls-1" x="85.37" y="24.73" width="24.21" height="7.37" rx="3.68" transform="translate(186.5 -20.43) rotate(135)"/><rect class="cls-1" x="50.84" y="10.42" width="24.21" height="7.37" rx="3.68" transform="translate(77.05 -48.84) rotate(90)"/><rect class="cls-1" x="16.3" y="24.73" width="24.21" height="7.37" rx="3.68" transform="translate(28.41 -11.77) rotate(45)"/></g><circle id="sunce" class="cls-1" cx="62.94" cy="62.94" r="25.97"/></g></g></g></svg>